<?xml version="1.0" encoding="utf-8"?>
<!-- Generator: Adobe Illustrator 24.1.0, SVG Export Plug-In . SVG Version: 6.00 Build 0)  -->
<svg version="1.1" id="Layer_1" xmlns="http://www.w3.org/2000/svg" xmlns:xlink="http://www.w3.org/1999/xlink" x="0px" y="0px"
	 viewBox="0 0 751.1 122.5" style="enable-background:new 0 0 751.1 122.5;" xml:space="preserve">
<style type="text/css">
	.st0{fill:#5E97F6;}
	.st1{fill:#ED5F53;}
	.st2{fill:#FCC62B;}
	.st3{fill:#52B56D;}
	.st4{fill:#EA4335;}
	.st5{fill:#FBBC05;}
	.st6{fill:#34A853;}
	.st7{fill:#4285F4;}
</style>
<g>
	<path d="M14.4,85h28c1.6,0,2.4,0.8,2.4,2.4v9.1c0,1.6-0.8,2.4-2.4,2.4h-40c-1.6,0-2.4-0.8-2.4-2.4V30.7c0-1.6,0.8-2.4,2.4-2.4h39.9
		c1.6,0,2.4,0.8,2.4,2.4v9.1c0,1.6-0.8,2.4-2.4,2.4H14.4V56h27.2c1.6,0,2.4,0.8,2.4,2.4v9.2c0,1.6-0.8,2.4-2.4,2.4H14.4V85z"/>
	<path d="M64.7,44.8c1.6,0,2.4,0.8,2.4,2.4v3.5c3.3-4.5,8.8-6.7,16.3-6.7c7.5,0.1,12.9,2.4,16.2,6.9c3.3,4.6,5,10.7,4.9,18.5v27.1
		c0,1.6-0.8,2.4-2.4,2.4h-8.7c-1.6,0-2.4-0.8-2.4-2.4v-27c0-8.8-3.6-13.2-10.7-13.3c-3.5-0.1-6.5,1.2-9,3.7s-3.7,5.7-3.7,9.6v27
		c0,1.6-0.8,2.4-2.4,2.4h-9.1c-1.6,0-2.4-0.8-2.4-2.4V47.2c0-1.6,0.8-2.4,2.4-2.4H64.7z"/>
	<path d="M160.3,87c1.3,0.9,1.5,2.1,0.5,3.4c-5.3,6.2-12.2,9.3-20.9,9.3c-7.6,0-14.3-2.5-20.1-7.5c-5.8-5-8.6-11.8-8.6-20.5
		c0-8.8,2.8-15.6,8.4-20.5s12.2-7.3,19.9-7.3c7.8,0,14.4,2.5,19.7,7.4c5.3,5,8,11.7,8,20.2c0,0.7-0.1,1.5-0.2,2.6
		c-0.1,1.5-0.9,2.2-2.5,2.2H125c0.5,3.5,2.3,6.2,5.3,8.3c3,2.1,6.2,3.1,9.6,3.1c4.5,0,8.2-1.5,11.1-4.4c1.1-1.1,2.3-1.2,3.4-0.4
		L160.3,87z M152.6,65.8c-0.7-3.4-2.4-5.9-4.9-7.6s-5.4-2.5-8.8-2.5c-3.1,0-5.9,0.9-8.4,2.6c-2.5,1.7-4.2,4.3-5.1,7.6L152.6,65.8
		L152.6,65.8z"/>
	<path d="M176,98.9c-1.6,0-2.4-0.8-2.4-2.4V47.2c0-1.6,0.8-2.4,2.4-2.4h7.7c1.5,0,2.3,0.8,2.4,2.3l0.2,2.6c3.5-4,8-6,13.3-6
		c1.4,0,2.7,0.1,4,0.4c1.5,0.2,2.2,1.1,2.2,2.6l-0.1,7.4c0,1.7-0.9,2.4-2.6,2.1c-1.2-0.1-2.1-0.2-2.6-0.2c-3.7,0.1-6.9,1.3-9.6,3.7
		c-2.7,2.4-4,5.5-4,9.5v27.3c0,1.6-0.8,2.4-2.4,2.4H176z"/>
	<path d="M239,122.4c-6.6,0-12.5-1.5-17.6-4.7c-5.1-3.1-8-7.3-8.8-12.6c-0.1-0.8,0-1.4,0.5-1.9c0.4-0.4,1-0.6,1.9-0.6h9.2
		c1.2,0,2,0.7,2.5,2.1c0.7,1.6,2.3,2.9,4.6,3.8s4.8,1.4,7.4,1.3c3.9-0.1,7.3-1.2,10.1-3.4c2.8-2.2,4.3-5.5,4.5-10.1v-4
		c-3.3,4.3-8.6,6.4-15.7,6.4c-8.5,0-15.2-2.5-19.9-7.5c-4.8-5-7.1-11.3-7.1-19c0-8.1,2.4-14.8,7.1-20.1c4.8-5.4,11.4-8,20-7.9
		c7.1,0,12.3,2.3,15.7,6.8v-3.7c0-1.6,0.8-2.4,2.4-2.4h8.5c1.6,0,2.4,0.8,2.4,2.4v49c0,4.5-0.8,8.5-2.4,12s-3.7,6.2-6.4,8.2
		c-2.7,2-5.6,3.5-8.8,4.5C245.9,121.9,242.5,122.4,239,122.4z M238.8,86.4c4.3-0.1,7.8-1.5,10.5-4.2c2.7-2.8,4.1-6.3,4.1-10.5
		s-1.3-7.8-4-10.7s-6.1-4.4-10.4-4.5c-4.7-0.1-8.4,1.5-11.1,4.7c-2.7,3.2-4,6.9-3.9,11.1c0.1,4.1,1.5,7.5,4.2,10.2
		C231,85.1,234.5,86.4,238.8,86.4z"/>
	<path d="M287.2,115.1c-0.9,0-1.6-0.2-1.9-0.8c-0.3-0.5-0.4-1.2-0.1-2l6.9-17.2l-18.7-47.5c-0.3-0.9-0.3-1.6,0-2.1s1-0.8,1.9-0.8
		h9.5c1.2,0,2.1,0.6,2.7,1.9l7.2,17.8l4.8,15.3l4.9-15.3l7-17.8c0.5-1.3,1.4-1.9,2.7-1.9h9.5c1.9,0,2.6,0.9,1.9,2.8l-26.1,65.6
		c-0.6,1.3-1.5,1.9-2.8,1.9h-9.4V115.1z"/>
	<path d="M347.6,85h28c1.6,0,2.4,0.8,2.4,2.4v9.1c0,1.6-0.8,2.4-2.4,2.4h-40c-1.6,0-2.4-0.8-2.4-2.4V30.7c0-1.6,0.8-2.4,2.4-2.4
		h39.9c1.6,0,2.4,0.8,2.4,2.4v9.1c0,1.6-0.8,2.4-2.4,2.4h-27.9V56h27.2c1.6,0,2.4,0.8,2.4,2.4v9.2c0,1.6-0.8,2.4-2.4,2.4h-27.2V85z"
		/>
	<path d="M386.6,98.9c-0.9,0-1.5-0.3-1.9-0.8c-0.3-0.6-0.2-1.2,0.4-2.1l15.7-24.7l-15.9-23.6c-0.5-0.8-0.7-1.5-0.3-2
		c0.3-0.6,0.9-0.9,1.9-0.9h10c1.2,0,2.2,0.5,2.9,1.5l4.8,7.2l4.8,8.3l4.7-8.1l5-7.4c0.7-1,1.6-1.5,2.9-1.5h9.9c1,0,1.7,0.3,2,0.9
		c0.3,0.6,0.2,1.2-0.3,2l-15.8,23.6L432.9,96c0.5,0.9,0.5,1.6,0.2,2.1s-0.9,0.8-1.8,0.8h-9.7c-1.3,0-2.2-0.5-2.9-1.6l-4.8-7.6
		l-4.9-8.8l-5.1,9.2l-4.5,7.2c-0.7,1.1-1.6,1.6-2.9,1.6C396.5,98.9,386.6,98.9,386.6,98.9z"/>
	<path d="M442,114.7c-1.6,0-2.4-0.8-2.4-2.4V47.2c0-1.6,0.8-2.4,2.4-2.4h8.5c1.6,0,2.4,0.8,2.4,2.4v3.7c3.3-4.6,8.6-6.9,15.7-6.9
		c8.5,0,15.2,2.8,19.8,8.3c4.7,5.5,7,12.3,7,20.2c-0.1,7.8-2.4,14.3-7,19.5s-11.2,7.8-19.8,7.8c-6.9,0-12.1-2.2-15.7-6.7v19.2
		c0,1.6-0.8,2.4-2.4,2.4C450.5,114.7,442,114.7,442,114.7z M467.6,87.6c4.5,0,8-1.5,10.5-4.5s3.8-6.7,3.9-10.9
		c0.1-4.2-1.2-7.9-3.9-11c-2.6-3.2-6.2-4.7-10.8-4.7c-4,0.1-7.4,1.5-10.2,4.4c-2.8,2.9-4.2,6.6-4.2,11.1c0,4.7,1.5,8.5,4.3,11.4
		C460,86.3,463.5,87.7,467.6,87.6z"/>
	<path d="M550.5,87c1.3,0.9,1.5,2.1,0.5,3.4c-5.3,6.2-12.2,9.3-20.9,9.3c-7.6,0-14.3-2.5-20-7.5c-5.8-5-8.7-11.8-8.7-20.5
		c0-8.8,2.8-15.6,8.3-20.5c5.6-4.9,12.2-7.3,19.9-7.3c7.8,0,14.4,2.5,19.7,7.4c5.3,5,8,11.7,8,20.2c0,0.7-0.1,1.5-0.2,2.6
		c-0.1,1.5-0.9,2.2-2.5,2.2h-39.4c0.5,3.5,2.3,6.2,5.3,8.3c3,2.1,6.2,3.1,9.6,3.1c4.5,0,8.2-1.5,11.1-4.4c1.1-1.1,2.3-1.2,3.4-0.4
		L550.5,87z M542.8,65.8c-0.7-3.4-2.4-5.9-4.9-7.6s-5.4-2.5-8.8-2.5c-3.1,0-6,0.9-8.5,2.6c-2.5,1.7-4.2,4.3-5,7.6L542.8,65.8
		L542.8,65.8z"/>
	<path d="M566.2,98.9c-1.6,0-2.4-0.8-2.4-2.4V47.2c0-1.6,0.8-2.4,2.4-2.4h7.7c1.5,0,2.3,0.8,2.4,2.3l0.2,2.6c3.5-4,8-6,13.3-6
		c1.4,0,2.7,0.1,4,0.4c1.5,0.2,2.2,1.1,2.2,2.6l-0.1,7.4c0,1.7-0.9,2.4-2.6,2.1c-1.2-0.1-2.1-0.2-2.6-0.2c-3.7,0.1-6.9,1.3-9.6,3.7
		c-2.7,2.4-4,5.5-4,9.5v27.3c0,1.6-0.8,2.4-2.4,2.4H566.2z"/>
	<path d="M620,99.5c-11.7-0.2-17.6-6.3-17.6-18.2V37.2c0-1.5,0.7-2.4,2.2-2.6l8.6-1c1.7-0.2,2.5,0.6,2.5,2.3v8.9h9.2
		c1.6,0,2.4,0.8,2.4,2.4v6.4c0,1.6-0.8,2.4-2.4,2.4h-9.2v25.4c0,4.7,2.6,7,7.7,6.9c0.7,0,1.3,0,1.7-0.1c1.7-0.1,2.5,0.6,2.6,2.2
		l0.2,6.3c0.1,1.5-0.7,2.4-2.5,2.6C623.3,99.5,621.5,99.6,620,99.5z"/>
	<path d="M657.6,100.1c-6.1,0-11.2-1.3-15.3-4s-6.5-6.8-7.2-12.3c-0.2-1.7,0.6-2.5,2.3-2.5h8.7c1.2,0,2.1,0.7,2.7,2.1
		c0.6,1.5,1.8,2.7,3.5,3.5s3.6,1.2,5.8,1.1c2.5,0,4.6-0.4,6.4-1.3c1.8-0.9,2.7-2.1,2.7-3.8c0-3-3-4.7-8.9-5c-0.2,0-0.5,0-0.9-0.1
		h-0.6c-2.7-0.2-5.2-0.6-7.5-1.2s-4.5-1.5-6.6-2.7s-3.8-2.8-5-4.9s-1.8-4.6-1.8-7.4c0-6.1,2.1-10.6,6.3-13.6s9.4-4.4,15.7-4.4
		c5.6,0,10.4,1.2,14.3,3.8c3.9,2.5,6.3,6.2,7,11.1c0.2,1.7-0.6,2.5-2.3,2.5h-8.4c-1.1,0-2-0.7-2.6-2.1c-1.1-2.3-3.9-3.4-8.6-3.4
		c-2.2,0-4.1,0.4-5.7,1.3c-1.6,0.9-2.3,2.2-2.3,4.1c0,2.7,2.4,4.2,7.1,4.5c0.3,0,0.7,0,1.2,0.1h0.7c2.9,0.1,5.6,0.5,8.1,1.2
		c2.5,0.6,4.9,1.6,7.1,2.8c2.2,1.3,4,3,5.2,5.3s2,4.9,2,7.9c0,6.1-2.2,10.5-6.7,13.2C669.4,98.8,664,100.1,657.6,100.1z"/>
</g>
<path class="st0" d="M745.4,16.5c-2.5-3.7-5.7-6.9-9.4-9.4L717.1,26l2.7,2.7h13.3L745.4,16.5z"/>
<path class="st1" d="M709.2,31.3V17.9L697,5.7c-3.7,2.5-6.9,5.7-9.4,9.4L706.5,34L709.2,31.3z"/>
<path class="st2" d="M711.8,41.9h-13.3l-12.2,12.2c2.5,3.7,5.7,6.9,9.4,9.4l18.9-18.9L711.8,41.9z"/>
<path class="st3" d="M722.5,39.3v13.2l12.2,12.2c3.7-2.5,6.9-5.7,9.4-9.4l-18.9-18.8L722.5,39.3z"/>
<path class="st4" d="M715.9,24.6l6.7-6.7V0.7c-2.1-0.5-4.4-0.7-6.7-0.7s-4.5,0.2-6.7,0.6V18v13.3L715.9,24.6z"/>
<path class="st5" d="M711.7,41.8l-3.8-3.8l-2.7-2.7l-6.7-6.7h-17.4c-0.5,2.1-0.6,4.4-0.6,6.7c0,2.2,0.2,4.4,0.6,6.5v0.1h17.4
	L711.7,41.8L711.7,41.8z"/>
<path class="st6" d="M715.9,46l-6.7,6.7V70c2.1,0.5,4.4,0.6,6.7,0.6s4.5-0.2,6.7-0.6V52.5V39.3L715.9,46z"/>
<path class="st7" d="M719.9,28.8l3.8,3.8l2.7,2.7l6.7,6.7h17.4c0.5-2.1,0.6-4.4,0.6-6.7c0-2.2-0.2-4.4-0.6-6.5v-0.1h-17.4h-13.3
	L719.9,28.8z"/>
</svg>
