<?xml version="1.0" encoding="UTF-8"?>
<svg id="Layer_1" data-name="Layer 1" xmlns="http://www.w3.org/2000/svg" version="1.1" viewBox="0 0 756 216.1">
  <defs>
    <style>
      .cls-1 {
        fill: #7eb900;
      }

      .cls-1, .cls-2, .cls-3 {
        stroke-width: 0px;
      }

      .cls-2 {
        fill: #000;
      }

      .cls-3 {
        fill: #00b4f0;
      }
    </style>
  </defs>
  <g>
    <path class="cls-2" d="M384.2,170.4c0,2-1,3-3,3h-12c-2,0-3-1-3-3v-82.6c0-2,1-3,3-3h9c1.5,0,2.7.6,3.7,1.9l24.4,36,24.4-36c.9-1.3,2.2-1.9,3.7-1.9h8.7c2,0,3,1,3,3v82.6c0,2-1,3-3,3h-11.8c-2,0-3-1-3-3v-48.3l-15.7,23.2c-.9,1.3-2.2,1.9-3.7,1.9h-5.3c-1.6,0-2.8-.6-3.7-1.9l-15.7-23.3v48.4Z"/>
    <path class="cls-2" d="M485.1,173.5c-2,0-3-1-3-3v-68.5h-22c-2,0-3-1-3-3v-11c0-2,1-3,3-3h62.2c2,0,3,1,3,3v11c0,2-1,3-3,3h-22v68.5c0,2-1,3-3,3h-12Z"/>
    <path class="cls-2" d="M554.2,155.9h35.5c2,0,3,1,3,3v11.5c0,2-1,3-3,3h-50.7c-2,0-3-1-3-3v-83.3c0-2,1-3,3-3h50.5c2,0,3,1,3,3v11.5c0,2-1,3-3,3h-35.3v17.5h34.5c2,0,3,1,3,3v11.7c0,2-1,3-3,3h-34.5v19Z"/>
    <path class="cls-2" d="M646,84.8c6.9,0,12.6,2.3,17,7,4.4,4.7,6.6,10.1,6.5,16.1,0,7.1-2.9,12.7-8.6,16.8,9,4.2,13.4,11.1,13.4,20.8s-2.4,14-7.3,19.6c-4.9,5.5-11.5,8.3-19.9,8.3h-37.5c-2,0-3-1-3-3v-82.6c0-2,1-3,3-3h36.4ZM624.5,118.1h19.4c2.4,0,4.2-.8,5.6-2.5,1.3-1.6,2.1-3.6,2.2-5.9,0-2.3-.5-4.2-1.8-5.9-1.3-1.6-3.2-2.5-5.6-2.5h-19.6v16.7ZM624.5,156.2h22.5c3,0,5.3-1.1,6.9-3.2,1.6-2.1,2.5-4.6,2.5-7.3s-.8-5.2-2.5-7.3c-1.6-2.1-3.9-3.2-6.9-3.2h-22.5v21Z"/>
    <path class="cls-2" d="M709.5,173.5c-2,0-3-1-3-3v-32.8l-31-49.8c-.6-1.1-.7-2-.3-2.7.4-.7,1.2-1,2.3-1h14.3c1.6,0,2.8.7,3.7,2l9.4,15.1,10.8,18.5,11-19.3,9-14.3c.8-1.4,2.1-2,3.7-2h14.2c1.2,0,2,.3,2.3,1,.4.7.3,1.6-.3,2.7l-30.9,49.7v32.9c0,2-1,3-3,3h-12Z"/>
  </g>
  <polygon class="cls-3" points="245 92.2 213.3 123.9 152.8 63.3 123.9 92.2 92.2 123.9 31.6 184.4 0 152.8 60.6 92.2 92.2 60.6 152.8 0 245 92.2"/>
  <polygon class="cls-1" points="366.1 63.3 305.6 123.9 273.9 155.5 213.3 216.1 152.8 155.5 121.1 123.9 152.8 92.2 184.4 123.9 213.3 152.8 242.3 123.9 273.9 92.2 334.5 31.6 366.1 63.3"/>
  <rect class="cls-3" x="31.6" y="63.3" width="31.6" height="75"/>
</svg>