<?xml version="1.0" encoding="UTF-8"?>
<svg id="Layer_1" data-name="Layer 1" xmlns="http://www.w3.org/2000/svg" version="1.1" viewBox="0 0 874.5 190.2">
  <defs>
    <style>
      .cls-1 {
        fill: #000;
      }

      .cls-1, .cls-2, .cls-3, .cls-4 {
        stroke-width: 0px;
      }

      .cls-2 {
        fill: #f48120;
      }

      .cls-3 {
        fill: #ec1c24;
      }

      .cls-4 {
        fill: #ffca05;
      }
    </style>
  </defs>
  <path class="cls-1" d="M143.2,151.8h70c4,0,6,2,6,6v22.8c0,4-2,6-6,6h-100c-4,0-6-2-6-6V16c0-4,2-6,6-6h99.8c4,0,6,2,6,6v22.8c0,4-2,6-6,6h-69.8v34.5h68c4,0,6,2,6,6v23c0,4-2,6-6,6h-68v37.5Z"/>
  <path class="cls-1" d="M305.7,188.5c-21.5,0-38.2-6.8-50.1-20.4-11.9-13.6-17.8-30.5-17.6-50.9.2-19.8,6.2-36.2,18-49,11.8-12.8,28.5-19.2,50-19.2s30.2,5.5,39.2,16.5V17.5c0-4,2-6,6-6h21.2c4,0,6,2,6,6v163c0,4-2,6-6,6h-21.2c-4,0-6-2-6-6v-9.5c-8.3,11.3-21.5,17.2-39.5,17.5ZM308.7,157.2c10-.2,18.5-3.9,25.6-11.1,7.1-7.2,10.6-16.5,10.6-27.9s-3.6-20.9-10.9-28.1-15.9-10.9-25.9-10.9c-11.3.2-20.3,4-26.9,11.6-6.6,7.6-10,16.5-10.1,26.9-.2,11.2,3.1,20.6,9.8,28.2,6.7,7.7,15.9,11.4,27.8,11.2Z"/>
  <path class="cls-1" d="M421,38.2c-5.5.2-10.4-1.4-14.6-4.8-4.2-3.3-6.4-8-6.4-14s2-11,6.1-14.4c4.1-3.4,8.9-5.1,14.4-5.1,5.5.2,10.2,1.9,14.1,5.2,3.9,3.3,5.9,8.1,5.9,14.2s-1.9,10.4-5.8,13.6c-3.8,3.2-8.4,5-13.8,5.1ZM409.5,186.5c-4,0-6-2-6-6V57.2c0-4,2-6,6-6h21.8c4,0,6,2,6,6v123.2c0,4-2,6-6,6h-21.8Z"/>
  <path class="cls-1" d="M513.2,189.5c-15.3,0-28.1-3.3-38.2-10-10.2-6.7-16.2-16.9-18-30.8-.5-4.2,1.4-6.2,5.8-6.2h21.8c3,0,5.2,1.8,6.8,5.2,1.5,3.8,4.4,6.8,8.6,8.8s9,2.9,14.4,2.8c6.2,0,11.5-1.1,16-3.2,4.5-2.2,6.8-5.3,6.8-9.5,0-7.5-7.4-11.7-22.2-12.5-.5,0-1.2,0-2.2-.2h-1.5c-6.8-.5-13.1-1.5-18.9-3s-11.3-3.7-16.6-6.6c-5.3-2.9-9.5-7-12.5-12.2s-4.5-11.5-4.5-18.6c0-15.2,5.2-26.5,15.8-33.9,10.5-7.4,23.6-11.1,39.2-11.1s25.9,3.1,35.8,9.4c9.8,6.2,15.7,15.5,17.5,27.9.5,4.2-1.4,6.2-5.8,6.2h-21c-2.8,0-5-1.8-6.5-5.2-2.7-5.7-9.8-8.5-21.5-8.5s-10.2,1.1-14.1,3.2c-3.9,2.2-5.9,5.6-5.9,10.2,0,6.7,5.9,10.4,17.8,11.2.7,0,1.7,0,3,.2h1.8c7.2.3,13.9,1.3,20.2,2.9,6.3,1.6,12.2,4,17.8,7.1,5.5,3.2,9.9,7.6,13.1,13.2,3.2,5.7,4.9,12.2,4.9,19.8,0,15.2-5.5,26.2-16.6,33.1-11.1,6.9-24.6,10.4-40.6,10.4Z"/>
  <path class="cls-1" d="M730.2,119c0,22.5-7.1,40-21.4,52.5s-31.3,18.8-51.1,18.8-36.4-6.3-50.8-18.9c-14.3-12.6-21.5-30-21.5-52.4s7.1-39.8,21.4-52.2,31.1-18.8,50.6-19c12.5-.2,24.2,2.3,35,7.4,10.8,5.1,19.8,13.2,27,24.4,7.2,11.2,10.8,24.3,10.8,39.5ZM619,119c0,12.3,3.8,22,11.5,29,7.7,7,16.8,10.6,27.2,10.8,10.7,0,19.9-3.5,27.6-10.5s11.6-16.8,11.6-29.2-3.9-22.5-11.8-29.6c-7.8-7.1-17.1-10.5-27.8-10.4-10.5.2-19.5,3.8-27.1,10.8-7.6,7-11.4,16.8-11.4,29.2Z"/>
  <path class="cls-1" d="M775,51.2c4,0,6,2,6,6v8.8c8.3-11.2,21.9-16.8,40.8-16.8,18.7.2,32.2,6,40.5,17.4,8.3,11.4,12.4,26.8,12.2,46.1v67.8c0,4-2,6-6,6h-21.8c-4,0-6-2-6-6v-67.5c0-22-8.9-33.1-26.8-33.2-8.8-.2-16.3,2.9-22.5,9.2-6.2,6.3-9.2,14.3-9.2,24v67.5c0,4-2,6-6,6h-22.8c-4,0-6-2-6-6V57.2c0-4,2-6,6-6h21.5Z"/>
  <path class="cls-3" d="M8.9,180.4c0,4-.5,6.1-1.5,6.1H1.5c-1,0-1.5-2-1.5-6.1V16.1c0-4,.5-6.1,1.5-6.1h5.9c1,0,1.5,2,1.5,6.1v164.4Z"/>
  <path class="cls-4" d="M89.4,180.4c0,4-1.5,6.1-4.5,6.1h-17.8c-3,0-4.5-2-4.5-6.1V16.1c0-4,1.5-6.1,4.5-6.1h17.8c3,0,4.5,2,4.5,6.1v164.4Z"/>
  <path class="cls-2" d="M44.7,180.4c0,4-1,6.1-3,6.1h-11.9c-2,0-3-2-3-6.1V16.1c0-4,1-6.1,3-6.1h11.9c2,0,3,2,3,6.1v164.4Z"/>
</svg>