<?xml version="1.0" encoding="UTF-8"?>
<svg id="Layer_1" data-name="Layer 1" xmlns="http://www.w3.org/2000/svg" version="1.1" viewBox="0 0 1276.3 236.7">
  <defs>
    <style>
      .cls-1 {
        fill: #0277bd;
      }

      .cls-1, .cls-2, .cls-3, .cls-4, .cls-5, .cls-6, .cls-7, .cls-8, .cls-9, .cls-10, .cls-11, .cls-12, .cls-13, .cls-14, .cls-15, .cls-16, .cls-17, .cls-18, .cls-19, .cls-20, .cls-21, .cls-22, .cls-23, .cls-24, .cls-25 {
        stroke-width: 0px;
      }

      .cls-2 {
        fill: #d81b60;
      }

      .cls-3 {
        fill: #006064;
      }

      .cls-4 {
        fill: #5c6bc0;
      }

      .cls-5 {
        fill: #c0ca33;
      }

      .cls-6 {
        fill: #ffb74d;
      }

      .cls-7 {
        fill: #00acc1;
      }

      .cls-8 {
        fill: #dd2c00;
      }

      .cls-9 {
        fill: #00796b;
      }

      .cls-10 {
        fill: #b71c1c;
      }

      .cls-11 {
        fill: #000;
      }

      .cls-12 {
        fill: #880e4f;
      }

      .cls-13 {
        fill: #8bc34a;
      }

      .cls-14 {
        fill: #f48fb1;
      }

      .cls-15 {
        fill: #e65100;
      }

      .cls-16 {
        fill: #689f38;
      }

      .cls-17 {
        fill: #827717;
      }

      .cls-18 {
        fill: #f44336;
      }

      .cls-19 {
        fill: #f9a825;
      }

      .cls-20 {
        fill: #ef6c00;
      }

      .cls-21 {
        fill: #ba68c8;
      }

      .cls-22 {
        fill: #64b5f6;
      }

      .cls-23 {
        fill: #ff5252;
      }

      .cls-24 {
        fill: #1b5e20;
      }

      .cls-25 {
        fill: #0d47a1;
      }
    </style>
  </defs>
  <g>
    <path class="cls-11" d="M338,35.7c8.9,0,15.8,2.8,20.8,8.7,5,5.8,7.4,12.5,7.2,20.3-.1,7.7-2.7,14.4-7.6,20s-11.7,8.4-20.6,8.4h-15.2v22.9c0,1.9-.9,2.8-2.8,2.8h-11.2c-1.9,0-2.8-.9-2.8-2.8V38.5c0-1.9.9-2.8,2.8-2.8h29.4ZM338,77c3.7,0,6.5-1.2,8.5-3.7s3-5.3,3-8.6-1.1-6.3-3-8.7c-2-2.5-4.8-3.7-8.5-3.7h-15.2v24.7h15.2Z"/>
    <path class="cls-11" d="M377.1,118.9c-1.9,0-2.8-.9-2.8-2.8v-58.2c0-1.9.9-2.8,2.8-2.8h9.1c1.8,0,2.7.9,2.8,2.7l.2,3.1c4.1-4.7,9.5-7.1,15.7-7.1s3.2,0,4.7.5c1.8.2,2.6,1.3,2.6,3.1v8.7c-.1,2-1.2,2.8-3.2,2.5-1.4,0-2.5-.2-3.1-.2-4.4,0-8.2,1.5-11.3,4.3-3.2,2.8-4.7,6.5-4.7,11.2v32.3c0,1.9-.9,2.8-2.8,2.8h-10Z"/>
    <path class="cls-11" d="M485,87c0,10.6-3.4,18.9-10,24.8-6.7,5.9-14.8,8.9-24.2,8.9s-17.2-3-24-8.9c-6.7-5.9-10.2-14.2-10.2-24.8s3.4-18.8,10-24.7c6.7-5.9,14.8-8.9,23.9-9,5.9,0,11.5,1.1,16.5,3.5,5.1,2.4,9.3,6.3,12.8,11.6,3.4,5.3,5.1,11.5,5.1,18.7h.1ZM432.5,87c0,5.8,1.8,10.4,5.4,13.7s7.9,5,12.9,5.1c5.1,0,9.5-1.7,13.1-5s5.4-7.9,5.4-13.8-1.9-10.6-5.6-14.1c-3.7-3.3-8-5-13.1-4.8-5,0-9.2,1.8-12.8,5.1-3.5,3.3-5.4,7.9-5.4,13.8h.1Z"/>
    <path class="cls-11" d="M515.2,119.2c-1.5,0-2.6-.7-3.3-2.2l-23.4-58.7c-.4-1.1-.4-1.9,0-2.5s1.1-.9,2.1-.9h11.5c1.5,0,2.6.7,3.2,2.2l8.2,20.4,5.9,18.8,5.8-18.7,8.2-20.6c.6-1.5,1.7-2.2,3.2-2.2h11.2c1.1,0,1.9.2,2.2.9.4.6.4,1.4,0,2.5l-23.4,58.7c-.6,1.5-1.7,2.2-3.3,2.2h-8.1Z"/>
    <path class="cls-11" d="M566.7,48.8c-2.6,0-4.8-.7-7-2.2-2-1.5-3-3.8-3-6.6s.9-5.2,2.8-6.9c1.9-1.7,4.3-2.5,6.9-2.5s4.8.9,6.7,2.5c1.9,1.5,2.7,3.8,2.7,6.7s-.9,4.8-2.7,6.4-4,2.4-6.5,2.5h0ZM561.2,118.9c-1.9,0-2.8-.9-2.8-2.8v-58.2c0-1.9.9-2.8,2.8-2.8h10.3c1.9,0,2.8.9,2.8,2.8v58.2c0,1.9-.9,2.8-2.8,2.8h-10.3Z"/>
    <path class="cls-11" d="M599.6,54.9c1.9,0,2.8.9,2.8,2.8v4.1c3.9-5.3,10.4-7.9,19.3-7.9s15.2,2.8,19.1,8.2c3.9,5.4,5.9,12.6,5.8,21.9v32c0,1.9-.9,2.8-2.8,2.8h-10.3c-1.9,0-2.8-.9-2.8-2.8v-31.9c0-10.4-4.3-15.6-12.6-15.7-4.1,0-7.7,1.4-10.6,4.4s-4.4,6.7-4.4,11.3v31.9c0,1.9-.9,2.8-2.8,2.8h-10.8c-1.9,0-2.8-.9-2.8-2.8v-58.2c0-1.9.9-2.8,2.8-2.8h10.2-.1Z"/>
    <path class="cls-11" d="M716.6,92.9c2.2,0,3.1,1.1,2.6,3.2-1.9,7.6-5.8,13.3-11.7,17.5-5.9,4-12.4,6.1-19.7,6.1s-16.5-2.8-23-8.6c-6.5-5.8-9.7-13.9-9.7-24.2s3.3-18.3,9.7-24.1c6.5-5.8,14.2-8.7,23-8.7s13.9,2.1,19.7,6.3c5.9,4.1,9.7,9.9,11.7,17.5.5,2.1-.4,3.2-2.6,3.2h-10.2c-1.5,0-2.6-.8-3.3-2.4-1.5-3.4-3.8-5.9-6.7-7.6s-6.3-2.5-9.7-2.4c-4.4.2-8.3,1.9-11.5,5.2-3.2,3.2-4.8,7.6-4.8,13s1.7,10.2,5,13.2c3.3,3.2,7.2,4.8,11.8,5,3.3,0,6.4-.6,9.3-2.4s5.1-4.3,6.6-7.7c.7-1.5,1.8-2.2,3.3-2.2h10.2Z"/>
    <path class="cls-11" d="M737.6,48.8c-2.6,0-5-.7-7-2.2s-3-3.8-3-6.6.9-5.2,3-6.9c1.9-1.7,4.1-2.5,6.9-2.5s4.8.9,6.7,2.5c1.9,1.5,2.7,3.8,2.7,6.7s-.9,4.8-2.7,6.4-4,2.4-6.5,2.5h-.1ZM732.2,118.9c-1.9,0-2.8-.9-2.8-2.8v-58.2c0-1.9.9-2.8,2.8-2.8h10.3c1.9,0,2.8.9,2.8,2.8v58.2c0,1.9-.9,2.8-2.8,2.8h-10.3Z"/>
    <path class="cls-11" d="M787.4,119.8c-10,0-18-3.3-23.6-9.8s-8.5-14.5-8.5-23.9,3-16.8,8.5-22.9c5.7-6.1,13.5-9.3,23.6-9.3s15,2.8,19.3,8.4v-4.5c0-1.9.9-2.8,2.8-2.8h10c1.9,0,2.8.9,2.8,2.8v58.2c0,1.9-.9,2.8-2.8,2.8h-10c-1.9,0-2.8-.9-2.8-2.8v-4.5c-3.9,5.3-10.4,8.2-19.3,8.3h0ZM788.9,105c4.7,0,8.9-1.8,12.4-5.2s5.3-7.8,5.3-13.1-1.8-9.9-5.4-13.2c-3.7-3.4-7.8-5.2-12.6-5.2s-9.7,1.9-12.8,5.3c-3.1,3.5-4.7,7.8-4.7,12.9s1.5,9.6,4.7,13.2c3.2,3.7,7.6,5.6,13.1,5.4h0Z"/>
    <path class="cls-11" d="M835.8,118.9c-1.9,0-2.8-.9-2.8-2.8V36.6c0-1.9.9-2.8,2.8-2.8h10.3c1.9,0,2.8.9,2.8,2.8v79.4c0,1.9-.9,2.8-2.8,2.8h-10.3Z"/>
    <path class="cls-11" d="M908.4,102.4h33.1c1.9,0,2.8.9,2.8,2.8v10.8c0,1.9-.9,2.8-2.8,2.8h-47.3c-1.9,0-2.8-.9-2.8-2.8V38.3c0-1.9.9-2.8,2.8-2.8h47.1c1.9,0,2.8.9,2.8,2.8v10.8c0,1.9-.9,2.8-2.8,2.8h-33v16.3h32.1c1.9,0,2.8.9,2.8,2.8v10.9c0,1.9-.9,2.8-2.8,2.8h-32.1v17.7h.1Z"/>
    <path class="cls-11" d="M967.9,54.9c1.9,0,2.8.9,2.8,2.8v4.1c3.9-5.3,10.4-7.9,19.3-7.9s15.2,2.8,19.1,8.2c3.9,5.4,5.9,12.6,5.8,21.9v32c0,1.9-.9,2.8-2.8,2.8h-10.3c-1.9,0-2.8-.9-2.8-2.8v-31.9c0-10.4-4.3-15.6-12.6-15.7-4.1,0-7.7,1.4-10.6,4.4s-4.4,6.7-4.4,11.3v31.9c0,1.9-.9,2.8-2.8,2.8h-10.8c-1.9,0-2.8-.9-2.8-2.8v-58.2c0-1.9.9-2.8,2.8-2.8h10.2-.1Z"/>
    <path class="cls-11" d="M1080.8,104.8c1.5,1.1,1.8,2.5.6,4-6.3,7.3-14.4,11-24.7,11s-16.9-3-23.6-8.7c-6.9-5.9-10.3-13.9-10.3-24.2s3.3-18.4,9.8-24.2c6.6-5.8,14.4-8.6,23.5-8.6s17,3,23.3,8.7c6.3,5.9,9.5,13.8,9.5,23.9s0,1.8-.2,3.1c0,1.8-1.1,2.6-3,2.6h-46.5c.6,4.1,2.7,7.3,6.3,9.8s7.3,3.7,11.3,3.7,9.7-1.8,13.1-5.2c1.3-1.3,2.7-1.4,4-.5l7,4.7h-.1ZM1071.7,79.8c-.8-4-2.8-7-5.8-9s-6.4-3-10.4-3-7.1,1.1-10,3.1-5,5.1-5.9,9h32.1Z"/>
    <path class="cls-11" d="M1099.4,118.9c-1.9,0-2.8-.9-2.8-2.8v-58.2c0-1.9.9-2.8,2.8-2.8h9.1c1.8,0,2.7.9,2.8,2.7l.2,3.1c4.1-4.7,9.5-7.1,15.7-7.1s3.2,0,4.7.5c1.8.2,2.6,1.3,2.6,3.1v8.7c0,2-1.2,2.8-3.2,2.5-1.4,0-2.5-.2-3.1-.2-4.4,0-8.2,1.5-11.3,4.3-3.2,2.8-4.7,6.5-4.7,11.2v32.3c0,1.9-.9,2.8-2.8,2.8h-10,0Z"/>
    <path class="cls-11" d="M1173.8,146.6c-7.8,0-14.8-1.8-20.7-5.4-6-3.7-9.5-8.6-10.4-14.9,0-.9,0-1.7.5-2.2s1.3-.7,2.2-.7h10.9c1.4,0,2.4.8,3,2.5.8,1.9,2.7,3.4,5.4,4.5,2.7,1.1,5.7,1.7,8.7,1.5,4.6,0,8.6-1.4,11.9-4,3.3-2.6,5.1-6.5,5.3-11.9v-4.7c-3.9,5.1-10.2,7.6-18.5,7.6s-18-3-23.6-8.7c-5.7-5.9-8.4-13.3-8.4-22.6s2.8-17.5,8.4-23.7c5.7-6.4,13.6-9.5,23.7-9.3,8.4,0,14.5,2.7,18.5,8v-4.4c0-1.9.9-2.8,2.8-2.8h10c1.9,0,2.8.9,2.8,2.8v57.9c0,5.3-.9,10-2.8,14.2-1.9,4.2-4.4,7.3-7.6,9.7s-6.6,4.1-10.4,5.3-7.8,1.8-11.9,1.8v-.2l.2-.3ZM1173.5,104.1c5.1,0,9.2-1.8,12.4-5,3.2-3.3,4.8-7.4,4.8-12.4s-1.5-9.2-4.7-12.6-7.2-5.2-12.3-5.2-9.9,1.8-13,5.6c-3.2,3.8-4.7,8.2-4.7,13.1s1.8,8.9,5,11.9c3.3,3.1,7.4,4.7,12.4,4.7h0,0Z"/>
    <path class="cls-11" d="M1230.7,138c-1.1,0-1.9-.2-2.2-.9-.4-.6-.5-1.4,0-2.5l8.2-20.3-22.1-56.1c-.4-1.1-.4-1.9,0-2.5s1.2-.9,2.2-.9h11.2c1.4,0,2.5.7,3.2,2.2l8.5,21,5.7,18.1,5.8-18.1,8.3-21c.6-1.5,1.7-2.2,3.2-2.2h11.2c2.2,0,3.1,1.1,2.2,3.3l-30.8,77.5c-.7,1.5-1.8,2.2-3.3,2.2h-11.1v.2h0Z"/>
    <path class="cls-11" d="M689.1,208.4c-9,0-16.4-3.1-22.3-9.1-6-6-9-13.6-9-22.8s3-16.9,9-22.9,13.5-9.1,22.3-9.1,6.1.4,9.1,1.2,5.9,2,8.9,3.7c2.8,1.7,5.4,4,7.6,7,2.2,3.1,3.8,6.5,4.6,10.5.4,1.7-.2,2.4-1.9,2.4h-9.2c-1.2,0-1.9-.6-2.4-1.8-1.4-3.7-3.5-6.3-6.6-8s-6.4-2.5-10-2.5c-5.3,0-9.7,1.9-13.1,5.6-3.5,3.7-5.3,8.4-5.3,13.9s1.8,10.5,5.3,14.2,7.9,5.6,13.1,5.6,5.9-.7,8.6-2.1,4.8-3.7,6.5-6.7h-18.5c-1.4,0-2.1-.7-2.1-2.1v-7.6c0-1.4.7-2.1,2.1-2.1h32c1.5,0,2.2.7,2.1,2.2-.2,4.7-.9,8.3-2,10.6-2.1,5.8-6,10.5-11.6,14.3s-11.3,5.7-17.4,5.7h.2Z"/>
    <path class="cls-11" d="M729.6,207.5c-1.4,0-2.1-.7-2.1-2.1v-43.7c0-1.4.7-2.1,2.1-2.1h6.9c1.3,0,2,.7,2.1,2l.2,2.4c3.1-3.5,7.1-5.3,11.8-5.3s2.4.1,3.5.4c1.3.1,2,.9,2,2.4v6.5c0,1.5-.8,2.1-2.4,1.9-1.1,0-1.8-.1-2.4-.1-3.3,0-6.1,1.2-8.5,3.2-2.4,2.1-3.5,5-3.5,8.5v24.2c0,1.4-.7,2.1-2.1,2.1h-7.7v-.3Z"/>
    <path class="cls-11" d="M810.6,183.5c0,8-2.5,14.2-7.6,18.7s-11.1,6.6-18.1,6.6-12.9-2.2-18-6.7-7.7-10.6-7.7-18.5,2.5-14.1,7.6-18.5c5.1-4.5,11-6.6,18-6.7,4.5,0,8.5.8,12.4,2.6,3.8,1.8,7,4.7,9.6,8.6,2.6,4,3.8,8.6,3.8,14.1h0v-.2ZM771.2,183.5c0,4.4,1.3,7.8,4.1,10.3,2.7,2.5,5.9,3.8,9.7,3.8s7.1-1.2,9.8-3.7,4.1-5.9,4.1-10.4-1.4-8-4.1-10.5c-2.7-2.5-6-3.8-9.8-3.7-3.8,0-7,1.3-9.6,3.8-2.7,2.5-4,5.9-4,10.4h-.2Z"/>
    <path class="cls-11" d="M835.9,208.1c-12.5,0-18.7-7.4-18.7-22.4v-24c0-1.4.7-2.1,2.1-2.1h7.7c1.4,0,2.1.7,2.1,2.1v24c0,7.7,3.1,11.7,9.2,11.9,3.2.1,5.9-.9,8-3.2s3.2-5.2,3.2-8.9v-23.9c0-1.4.7-2.1,2.1-2.1h8c1.4,0,2.1.7,2.1,2.1v43.7c0,1.4-.7,2.1-2.1,2.1h-7.4c-1.4,0-2.1-.7-2.1-2.1v-3.3c-3,4.1-7.8,6.1-14.2,6h0,.1Z"/>
    <path class="cls-11" d="M871.8,221.4c-1.4,0-2.1-.7-2.1-2.1v-57.7c0-1.4.7-2.1,2.1-2.1h7.6c1.4,0,2.1.7,2.1,2.1v3.3c3-4.1,7.6-6.1,13.9-6.1s13.5,2.5,17.6,7.3c4.1,5,6.3,10.9,6.1,18,0,6.9-2.1,12.6-6.3,17.2-4.1,4.6-9.9,6.9-17.5,6.9s-10.8-2-13.9-5.9v17c0,1.4-.7,2.1-2.1,2.1h-7.6.1ZM894.5,197.4c3.9,0,7.1-1.3,9.3-4s3.4-5.9,3.4-9.6-1.1-7-3.4-9.8c-2.4-2.8-5.6-4.1-9.6-4.1s-6.6,1.4-9.1,3.9c-2.5,2.6-3.8,5.8-3.8,9.8s1.3,7.4,3.9,10,5.7,3.8,9.2,3.8h0Z"/>
  </g>
  <path class="cls-6" d="M121.1,112.4c-.9-1.1-1.9-2.1-2.7-3.3-.8,1.1-1.7,2.2-2.7,3.3.9,0,1.8.1,2.7.1s1.8,0,2.7-.1ZM114.2,64.1c1.6,1.6,3,3.3,4.2,5.1,1.2-1.8,2.6-3.5,4.2-5.1l29.3-29.3c.6-.6,1.3-1,1.9-1.6C152.5,14.9,137.2.3,118.4.3s-34.1,14.6-35.3,33.1c.6.5,1.3,1,1.9,1.6l29.3,29.3Z"/>
  <path class="cls-22" d="M115.8,124.5c.9,1.1,1.9,2.1,2.7,3.3.8-1.1,1.7-2.2,2.7-3.3-.9,0-1.8-.1-2.7-.1s-1.8,0-2.7.1ZM122.6,172.8c-1.6-1.6-3-3.3-4.2-5.1-1.2,1.8-2.6,3.5-4.2,5.1l-29.3,29.3c-.6.6-1.3,1-1.9,1.6,1.2,18.5,16.6,33.1,35.3,33.1s34.1-14.6,35.3-33.1c-.6-.5-1.3-1-1.9-1.6l-29.3-29.3Z"/>
  <path class="cls-14" d="M64.1,122.7c1.6-1.6,3.3-3,5.1-4.2-1.8-1.2-3.5-2.6-5.1-4.2l-29.3-29.3c-.6-.6-1-1.3-1.6-1.9C14.8,84.4.2,99.7.2,118.5s14.6,34.1,33.1,35.3c.5-.6,1-1.3,1.6-1.9l29.3-29.3ZM112.4,115.8c-1.1.9-2.1,1.9-3.3,2.7,1.1.8,2.2,1.7,3.3,2.7,0-.9.1-1.8.1-2.7s0-1.8-.1-2.7Z"/>
  <path class="cls-13" d="M124.3,118.5c0,.9,0,1.8.1,2.7,1.1-.9,2.1-1.9,3.3-2.7-1.1-.8-2.2-1.7-3.3-2.7,0,.9-.1,1.8-.1,2.7ZM236.6,118.5c0-18.8-14.6-34.1-33.1-35.3-.5.6-1,1.3-1.6,1.9l-29.3,29.3c-1.6,1.6-3.3,3-5.1,4.2,1.8,1.2,3.5,2.6,5.1,4.2l29.3,29.3c.6.6,1,1.3,1.6,1.9,18.5-1.2,33.1-16.6,33.1-35.3Z"/>
  <path class="cls-5" d="M153.9,77.1c0,2.2-.2,4.4-.6,6.5,2.1-.4,4.3-.6,6.5-.6h41.4c.8,0,1.6,0,2.4.1,12.1-13.9,11.7-35-1.6-48.3-13.3-13.3-34.3-13.7-48.3-1.6,0,.8.1,1.6.1,2.4v41.4ZM124.5,115.8c.1-1.3.3-2.6.5-3.9-1.3.2-2.6.4-3.9.5.5.6.9,1.3,1.5,1.9s1.3,1,1.9,1.5Z"/>
  <path class="cls-19" d="M122.6,64.1c-1.6,1.6-3,3.3-4.2,5.1,8.2,12,8.2,27.9,0,39.9.8,1.1,1.7,2.2,2.7,3.3,1.3-.1,2.6-.3,3.9-.5,2.7-14.3,14-25.6,28.3-28.3.4-2.1.6-4.3.6-6.5v-41.4c0-.8,0-1.6-.1-2.4-.6.5-1.3,1-1.9,1.6l-29.3,29.3Z"/>
  <path class="cls-16" d="M159.8,83c-2.2,0-4.4.2-6.5.6-2.7,14.3-14,25.6-28.3,28.3-.2,1.3-.4,2.6-.5,3.9,1.1.9,2.1,1.9,3.3,2.7,12-8.2,27.9-8.2,39.9,0,1.8-1.2,3.5-2.6,5.1-4.2l29.3-29.3c.6-.6,1-1.3,1.6-1.9-.8,0-1.6-.1-2.4-.1h-41.4Z"/>
  <path class="cls-17" d="M153.3,83.6c-14.3,2.7-25.6,14-28.3,28.3,14.3-2.7,25.6-14,28.3-28.3Z"/>
  <path class="cls-21" d="M83,159.9c0-2.2.2-4.4.6-6.5-2.1.4-4.3.6-6.5.6h-41.4c-.8,0-1.6,0-2.4-.1-12.1,13.9-11.7,35,1.6,48.3,13.3,13.2,34.3,13.7,48.3,1.6,0-.8-.1-1.6-.1-2.4v-41.4ZM112.4,121.1c-.1,1.3-.3,2.6-.5,3.9,1.3-.2,2.6-.4,3.9-.5-.5-.6-.9-1.3-1.5-1.9s-1.3-1-1.9-1.5Z"/>
  <path class="cls-4" d="M114.2,172.8c1.6-1.6,3-3.3,4.2-5.1-8.2-12-8.2-27.9,0-39.9-.8-1.1-1.7-2.2-2.7-3.3-1.3.1-2.6.3-3.9.5-2.7,14.3-14,25.6-28.3,28.3-.4,2.1-.6,4.3-.6,6.5v41.4c0,.8,0,1.6.1,2.4.6-.5,1.3-1,1.9-1.6l29.3-29.3Z"/>
  <path class="cls-2" d="M77,153.9c2.2,0,4.4-.2,6.5-.6,2.7-14.3,14-25.6,28.3-28.3.2-1.3.4-2.6.5-3.9-1.1-.9-2.1-1.9-3.3-2.7-12,8.2-27.9,8.2-39.9,0-1.8,1.2-3.5,2.6-5.1,4.2l-29.3,29.3c-.6.6-1,1.3-1.6,1.9.8,0,1.6.1,2.4.1h41.4Z"/>
  <path class="cls-12" d="M83.6,153.3c14.3-2.7,25.6-14,28.3-28.3-14.3,2.7-25.6,14-28.3,28.3Z"/>
  <path class="cls-23" d="M115.8,112.4c-1.3-.1-2.6-.3-3.9-.5.2,1.3.4,2.6.5,3.9.6-.5,1.3-.9,1.9-1.5s1-1.3,1.5-1.9ZM77,83c2.2,0,4.4.2,6.5.6-.4-2.1-.6-4.3-.6-6.5v-41.4c0-.8,0-1.6.1-2.4-13.9-12.1-35-11.7-48.3,1.6-13.3,13.3-13.7,34.3-1.6,48.3.8,0,1.6-.1,2.4-.1h41.4Z"/>
  <path class="cls-20" d="M83,77.1c0,2.2.2,4.4.6,6.5,14.3,2.7,25.6,14,28.3,28.3,1.3.2,2.6.4,3.9.5.9-1.1,1.9-2.1,2.7-3.3-8.2-12-8.2-27.9,0-39.9-1.2-1.8-2.6-3.5-4.2-5.1l-29.3-29.3c-.6-.6-1.3-1-1.9-1.6,0,.8-.1,1.6-.1,2.4v41.4Z"/>
  <path class="cls-18" d="M64.1,114.3c1.6,1.6,3.3,3,5.1,4.2,12-8.2,27.9-8.2,39.9,0,1.1-.8,2.2-1.7,3.3-2.7-.1-1.3-.3-2.6-.5-3.9-14.3-2.7-25.6-14-28.3-28.3-2.1-.4-4.3-.6-6.5-.6h-41.4c-.8,0-1.6,0-2.4.1.5.6,1,1.3,1.6,1.9l29.3,29.3Z"/>
  <path class="cls-8" d="M83.6,83.6c2.7,14.3,14,25.6,28.3,28.3-2.7-14.3-14-25.6-28.3-28.3Z"/>
  <path class="cls-15" d="M118.4,69.3c-8.2,12-8.2,27.9,0,39.9,8.2-12,8.2-27.9,0-39.9Z"/>
  <path class="cls-10" d="M69.2,118.5c12,8.2,27.9,8.2,39.9,0-12-8.2-27.9-8.2-39.9,0Z"/>
  <path class="cls-7" d="M159.8,153.9c-2.2,0-4.4-.2-6.5-.6.4,2.1.6,4.3.6,6.5v41.4c0,.8,0,1.6-.1,2.4,13.9,12.1,35,11.7,48.3-1.6,13.2-13.3,13.7-34.3,1.6-48.3-.8,0-1.6.1-2.4.1h-41.4ZM121.1,124.5c1.3.1,2.6.3,3.9.5-.2-1.3-.4-2.6-.5-3.9-.6.5-1.3.9-1.9,1.5s-1,1.3-1.5,1.9Z"/>
  <path class="cls-1" d="M153.9,159.9c0-2.2-.2-4.4-.6-6.5-14.3-2.7-25.6-14-28.3-28.3-1.3-.2-2.6-.4-3.9-.5-.9,1.1-1.9,2.1-2.7,3.3,8.2,12,8.2,27.9,0,39.9,1.2,1.8,2.6,3.5,4.2,5.1l29.3,29.3c.6.6,1.3,1,1.9,1.6,0-.8.1-1.6.1-2.4v-41.4Z"/>
  <path class="cls-9" d="M172.7,122.7c-1.6-1.6-3.3-3-5.1-4.2-12,8.2-27.9,8.2-39.9,0-1.1.8-2.2,1.7-3.3,2.7.1,1.3.3,2.6.5,3.9,14.3,2.7,25.6,14,28.3,28.3,2.1.4,4.3.6,6.5.6h41.4c.8,0,1.6,0,2.4-.1-.5-.6-1-1.3-1.6-1.9l-29.3-29.3Z"/>
  <path class="cls-3" d="M153.3,153.3c-2.7-14.3-14-25.6-28.3-28.3,2.7,14.3,14,25.6,28.3,28.3Z"/>
  <path class="cls-24" d="M127.7,118.5c12,8.2,27.9,8.2,39.9,0-12-8.2-27.9-8.2-39.9,0Z"/>
  <path class="cls-25" d="M118.4,167.7c8.2-12,8.2-27.9,0-39.9-8.2,12-8.2,27.9,0,39.9Z"/>
</svg>