<?xml version="1.0" encoding="UTF-8"?>
<svg id="Layer_1" data-name="Layer 1" xmlns="http://www.w3.org/2000/svg" version="1.1" viewBox="0 0 2713.8 500">
  <defs>
    <style>
      .cls-1 {
        fill: #7eb900;
      }

      .cls-1, .cls-2, .cls-3 {
        stroke-width: 0px;
      }

      .cls-2 {
        fill: #000;
      }

      .cls-3 {
        fill: #00b4f0;
      }
    </style>
  </defs>
  <polygon class="cls-3" points="566.9 213.4 493.7 286.6 353.5 146.5 286.6 213.4 213.4 286.6 73.2 426.8 0 353.5 140.2 213.4 213.4 140.2 353.5 0 566.9 213.4"/>
  <polygon class="cls-1" points="847.3 146.5 707.1 286.6 633.9 359.8 493.7 500 353.5 359.8 280.3 286.6 353.5 213.4 426.8 286.6 493.7 353.6 560.6 286.6 633.9 213.4 774 73.2 847.3 146.5"/>
  <rect class="cls-3" x="73.2" y="146.5" width="73.2" height="173.6"/>
  <g>
    <path class="cls-2" d="M990.5,420.9c-6.2,0-9.3-3.1-9.3-9.3v-255.8c0-6.2,3.1-9.3,9.3-9.3h93.6c29,0,51.6,9.1,67.7,27.4,16.2,18.2,24.1,39.5,23.9,63.9-.3,18.4-5.6,35.3-16.1,50.7-10.5,15.4-25.2,26.2-44.1,32.4l65.6,88.9c2.3,3.1,3,5.8,1.9,8-1,2.2-3.5,3.3-7.4,3.3h-46.6c-4.4,0-8.2-1.9-11.3-5.8l-63.7-90.1h-17.9v86.6c0,6.2-3.1,9.3-9.3,9.3h-36.5ZM1035.9,274.6h47c11.6,0,20.8-3.6,27.6-10.7,6.7-7.1,10.2-15.5,10.5-25,0-10.1-3.4-19-10.1-26.8-6.7-7.8-16.1-11.6-28-11.6h-47v74.1Z"/>
    <path class="cls-2" d="M1384.5,374.7c5.2,3.6,5.8,8,1.9,13.2-20.4,24.1-47.5,36.1-81.1,36.1s-55.5-9.6-77.8-28.9c-22.4-19.3-33.6-45.7-33.6-79.4s10.8-60.7,32.4-79.6c21.6-18.9,47.3-28.3,77.1-28.3s55.8,9.6,76.5,28.9c20.7,19.3,31.1,45.4,31.1,78.2s-.3,6-.8,10.1c-.3,5.7-3.5,8.5-9.7,8.5h-153c2.1,13.5,8.9,24.2,20.6,32.2,11.6,8,24.1,12,37.3,12s31.7-5.7,43.1-17.1c4.4-4.1,8.8-4.7,13.2-1.6l22.9,15.5ZM1354.6,292.4c-2.9-13.2-9.1-23.1-18.8-29.7s-21-9.9-34-9.9-23.1,3.4-32.8,10.1c-9.7,6.7-16.2,16.6-19.6,29.5h105.2Z"/>
    <path class="cls-2" d="M1476.9,210.9c6.2,0,9.3,3.1,9.3,9.3v13.6c12.9-17.3,34-26,63.3-26,29,.3,49.9,9.3,62.9,27,12.9,17.7,19.3,41.6,19,71.6v105.2c0,6.2-3.1,9.3-9.3,9.3h-33.8c-6.2,0-9.3-3.1-9.3-9.3v-104.8c0-34.2-13.8-51.4-41.5-51.6-13.7-.3-25.4,4.5-34.9,14.4-9.6,9.8-14.4,22.3-14.4,37.3v104.8c0,6.2-3.1,9.3-9.3,9.3h-35.3c-6.2,0-9.3-3.1-9.3-9.3v-191.4c0-6.2,3.1-9.3,9.3-9.3h33.4Z"/>
    <path class="cls-2" d="M1883.4,316.1c0,34.9-11.1,62.1-33.2,81.5-22.1,19.4-48.6,29.1-79.4,29.1s-56.6-9.8-78.8-29.3c-22.3-19.5-33.4-46.6-33.4-81.3s11.1-61.7,33.2-81.1c22.1-19.4,48.3-29.2,78.6-29.5,19.4-.3,37.5,3.6,54.4,11.5,16.8,7.9,30.8,20.5,41.9,37.9,11.1,17.3,16.7,37.8,16.7,61.3ZM1710.6,316.1c0,19.2,6,34.2,17.9,45,11.9,10.9,26,16.4,42.3,16.7,16.6,0,30.9-5.4,42.9-16.3,12-10.9,18.1-26,18.1-45.4s-6.1-35-18.2-46c-12.2-11-26.5-16.4-43.1-16.1-16.3.3-30.3,5.8-42.1,16.7-11.8,10.9-17.7,26-17.7,45.4Z"/>
    <path class="cls-2" d="M2032.8,147.6c29.2,0,52.1,9.5,68.5,28.5,16.4,19,24.4,41.3,23.9,67-.5,25.4-8.8,47.2-24.8,65.6-16.1,18.4-38.6,27.6-67.5,27.6h-50.1v75.3c0,6.2-3.1,9.3-9.3,9.3h-36.9c-6.2,0-9.3-3.1-9.3-9.3v-254.7c0-6.2,3.1-9.3,9.3-9.3h96.3ZM2032.8,283.5c12.2,0,21.5-4,28.1-12,6.6-8,9.9-17.5,9.9-28.3s-3.3-20.7-9.9-28.7c-6.6-8-16-12-28.1-12h-50.1v81.1h50.1Z"/>
    <path class="cls-2" d="M2161.3,420.9c-6.2,0-9.3-3.1-9.3-9.3v-191.4c0-6.2,3.1-9.3,9.3-9.3h29.9c5.7,0,8.8,3,9.3,8.9l.8,10.1c13.7-15.5,30.9-23.3,51.6-23.3s10.6.5,15.5,1.6c5.7.8,8.5,4.1,8.5,10.1l-.4,28.7c0,6.7-3.4,9.5-10.1,8.2-4.7-.5-8-.8-10.1-.8-14.5.3-26.9,5-37.3,14.2-10.4,9.2-15.5,21.5-15.5,37.1v106c0,6.2-3.1,9.3-9.3,9.3h-33Z"/>
    <path class="cls-2" d="M2516.2,316.1c0,34.9-11.1,62.1-33.2,81.5-22.1,19.4-48.6,29.1-79.4,29.1s-56.6-9.8-78.8-29.3c-22.3-19.5-33.4-46.6-33.4-81.3s11.1-61.7,33.2-81.1c22.1-19.4,48.3-29.2,78.6-29.5,19.4-.3,37.5,3.6,54.4,11.5,16.8,7.9,30.8,20.5,41.9,37.9,11.1,17.3,16.7,37.8,16.7,61.3ZM2343.4,316.1c0,19.2,6,34.2,17.9,45,11.9,10.9,26,16.4,42.3,16.7,16.6,0,30.9-5.4,42.9-16.3,12-10.9,18.1-26,18.1-45.4s-6.1-35-18.2-46c-12.2-11-26.5-16.4-43.1-16.1-16.3.3-30.3,5.8-42.1,16.7-11.8,10.9-17.7,26-17.7,45.4Z"/>
    <path class="cls-2" d="M2624.9,425.6c-23.8,0-43.6-5.2-59.4-15.5-15.8-10.3-25.1-26.3-28-47.8-.8-6.5,2.2-9.7,8.9-9.7h33.8c4.7,0,8.2,2.7,10.5,8.2,2.3,6,6.8,10.5,13.4,13.6,6.6,3.1,14,4.5,22.3,4.3,9.6,0,17.9-1.7,24.8-5,7-3.4,10.5-8.3,10.5-14.8,0-11.6-11.5-18.1-34.6-19.4-.8,0-1.9-.1-3.5-.4h-2.3c-10.6-.8-20.4-2.3-29.3-4.7-8.9-2.3-17.5-5.8-25.8-10.3-8.3-4.5-14.8-10.9-19.4-19-4.7-8.2-7-17.8-7-28.9,0-23.5,8.2-41.1,24.5-52.6,16.3-11.5,36.6-17.3,61-17.3s40.2,4.9,55.5,14.6c15.3,9.7,24.3,24.1,27.2,43.3.8,6.5-2.2,9.7-8.9,9.7h-32.6c-4.4,0-7.8-2.7-10.1-8.2-4.1-8.8-15.3-13.2-33.4-13.2s-15.9,1.7-21.9,5c-6.1,3.4-9.1,8.7-9.1,15.9,0,10.4,9.2,16.2,27.6,17.5,1,0,2.6.1,4.7.4h2.7c11.1.5,21.6,2,31.4,4.5,9.8,2.5,19,6.2,27.6,11.1,8.5,4.9,15.3,11.8,20.4,20.6,5,8.8,7.6,19,7.6,30.7,0,23.6-8.6,40.7-25.8,51.4-17.2,10.7-38.2,16.1-63.1,16.1Z"/>
  </g>
</svg>